# xmcd CD database file
#
# Track frame offsets:
#	150
#	14130
#	29883
#	44065
#	59474
#	72956
#	86405
#	101134
#	113959
#	128588
#	146045
#	161754
#	175340
#	190624
#
# Disc length: 2707 seconds
#
# Revision: 2
# Processed by: cddbd v1.5.2PL0 Copyright (c) Steve Scherf et al.
# Submitted via: ACXtractor (MTCDDB.DLL V2003.12.21)
#
DISCID=d30a910e
DTITLE=Slim Dusty - 91 Over 50
DYEAR=1996
DGENRE=Rock
TTITLE0=Born A Travelling Man
TTITLE1=I Hope They Fight Again
TTITLE2=A Word To Texas Jack
TTITLE3=How Will I Go With Him Mate?
TTITLE4=Must've Been A Hell Of A Party
TTITLE5=Gum Trees By The Roadway
TTITLE6=Do You Think That I Don't Know
TTITLE7=Ned Kelly Was A Gentleman
TTITLE8=Cattlecamp Crooner
TTITLE9=Ringer's Stomp
TTITLE10=Duncan
TTITLE11=Kelly's Offsider
TTITLE12=When The Rain Tumbles Down In July
TTITLE13=Old Time Country Halls
EXTD=1996 EMI Music Australia ID3G:  17 YEAR: 1996
EXTT0=
EXTT1=
EXTT2=
EXTT3=
EXTT4=
EXTT5=
EXTT6=
EXTT7=
EXTT8=
EXTT9=
EXTT10=
EXTT11=
EXTT12=
EXTT13=
PLAYORDER=
